<svg id="Group_5" data-name="Group 5" xmlns="http://www.w3.org/2000/svg" xmlns:xlink="http://www.w3.org/1999/xlink" width="297.869" height="105.057" viewBox="0 0 297.869 105.057">
  <defs>
    <clipPath id="clip-path">
      <rect id="Rectangle_50" data-name="Rectangle 50" width="297.869" height="105.057" fill="#fff"/>
    </clipPath>
  </defs>
  <g id="Group_4" data-name="Group 4" clip-path="url(#clip-path)">
    <path id="Path_6" data-name="Path 6" d="M421.588,208.537h9.773a.327.327,0,0,0,.241-.106.333.333,0,0,0,.106-.244l.277-2.19c.047-.233-.044-.347-.277-.347h-12.8a.368.368,0,0,0-.383.347l-2.888,23.647c-.047.233.047.347.28.347h2.561a.368.368,0,0,0,.383-.347l1.251-10.3a.118.118,0,0,1,.053-.1.209.209,0,0,1,.121-.035h6.4a.368.368,0,0,0,.383-.347l.241-2.19c.047-.233-.044-.347-.277-.347h-6.388a.124.124,0,0,1-.138-.141l.939-7.51a.121.121,0,0,1,.11-.13.113.113,0,0,1,.028,0" transform="translate(-293.279 -145.111)" fill="#fff"/>
    <path id="Path_7" data-name="Path 7" d="M482.551,204.709a8.275,8.275,0,0,0-3.912.933,7.693,7.693,0,0,0-2.87,2.588,8.539,8.539,0,0,0-1.354,3.827l-1.257,10.212c-.044.556-.068.951-.068,1.178a6.018,6.018,0,0,0,1.722,4.5,6.382,6.382,0,0,0,4.675,1.684,7.972,7.972,0,0,0,5.531-2.034,8.3,8.3,0,0,0,2.676-5.337l1.254-10.224c.044-.556.068-.951.068-1.178a5.922,5.922,0,0,0-1.737-4.483,6.555,6.555,0,0,0-4.728-1.669m3.165,7.265-1.286,10.447a5.005,5.005,0,0,1-1.5,3.132,4.3,4.3,0,0,1-3.062,1.177,3.45,3.45,0,0,1-2.555-.957,3.494,3.494,0,0,1-.957-2.59,5.886,5.886,0,0,1,.035-.762l1.251-10.433a5.343,5.343,0,0,1,1.513-3.162,4.164,4.164,0,0,1,3.044-1.219,3.407,3.407,0,0,1,2.59,1.007,3.744,3.744,0,0,1,.957,2.679A5.135,5.135,0,0,1,485.716,211.974Z" transform="translate(-333.824 -144.447)" fill="#fff"/>
    <path id="Path_8" data-name="Path 8" d="M553.911,205.65h-2.573a.34.34,0,0,0-.244.106.523.523,0,0,0-.138.241l-2.087,17.041a5.114,5.114,0,0,1-1.472,3.147,4.2,4.2,0,0,1-3.041,1.2,3.282,3.282,0,0,1-2.505-.992,3.709,3.709,0,0,1-.939-2.649,5.172,5.172,0,0,1,.035-.695l2.081-17.035c.044-.233-.047-.347-.294-.347h-2.573a.368.368,0,0,0-.383.347l-2.061,16.832c-.047.556-.068.951-.068,1.178a6.152,6.152,0,0,0,1.7,4.575,6.284,6.284,0,0,0,4.628,1.687,7.848,7.848,0,0,0,5.493-2.034,8.492,8.492,0,0,0,2.649-5.408l2.1-16.829c0-.247-.106-.362-.315-.362" transform="translate(-379.379 -145.112)" fill="#fff"/>
    <path id="Path_9" data-name="Path 9" d="M617.756,205.648h-2.5a.368.368,0,0,0-.383.347l-2.019,16.241c0,.068-.018.1-.05.1a.188.188,0,0,1-.124-.068L606.5,205.892a.383.383,0,0,0-.383-.244h-2.54a.368.368,0,0,0-.383.347l-2.9,23.647c-.047.233.044.347.277.347h2.576a.374.374,0,0,0,.383-.347l1.946-16.308c.024-.071.053-.106.085-.106a.107.107,0,0,1,.088.071l6.182,16.447c.021.165.15.244.383.244h2.573a.335.335,0,0,0,.244-.1.341.341,0,0,0,.1-.244l2.938-23.632a.262.262,0,0,0-.05-.241.323.323,0,0,0-.262-.121" transform="translate(-423.572 -145.11)" fill="#fff"/>
    <path id="Path_10" data-name="Path 10" d="M683.912,211.289a5.393,5.393,0,0,0-1.637-4.139,6.308,6.308,0,0,0-4.486-1.531h-6.85a.368.368,0,0,0-.383.347l-2.885,23.647c-.047.233.047.347.277.347h6.85a7.66,7.66,0,0,0,5.234-1.843,7.5,7.5,0,0,0,2.487-4.9l1.322-10.848c.047-.489.071-.863.071-1.077m-3.338,1.425-1.239,10.162a5.106,5.106,0,0,1-1.357,3.044,3.7,3.7,0,0,1-2.747,1.13l-3.859.035a.124.124,0,0,1-.139-.107.125.125,0,0,1,0-.035l2.261-18.29a.121.121,0,0,1,.138-.138h3.859a2.943,2.943,0,0,1,2.3.918,3.571,3.571,0,0,1,.833,2.487,7.645,7.645,0,0,1-.047.8Z" transform="translate(-471.117 -145.09)" fill="#fff"/>
    <path id="Path_11" data-name="Path 11" d="M736.344,205.639H733.18a.448.448,0,0,0-.415.312L723.615,229.6a.294.294,0,0,0,0,.28.271.271,0,0,0,.244.1h2.649a.41.41,0,0,0,.418-.312l1.5-4.036.185-.5,7.239-2.261.365,2.758.486,4.036c0,.209.118.312.347.312h2.649c.233,0,.35-.1.35-.312V229.6l-3.377-23.647a.276.276,0,0,0-.324-.312m-2.19,4.589c.024-.044.047-.068.071-.068s.044.024.068.068l1.225,10.009-5.764,1.8Z" transform="translate(-510.576 -145.101)" fill="#fff"/>
    <path id="Path_12" data-name="Path 12" d="M800.727,205.755a.294.294,0,0,0-.227-.106H786.347a.368.368,0,0,0-.383.347l-.294,2.225c0,.233.106.347.315.347h5.181a.124.124,0,0,1,.139.107.127.127,0,0,1,0,.035l-2.573,20.933c-.047.233.047.347.294.347H791.6a.368.368,0,0,0,.383-.347l2.573-20.933a.123.123,0,0,1,.138-.141h5.425a.377.377,0,0,0,.294-.1.341.341,0,0,0,.1-.244l.28-2.225a.271.271,0,0,0-.068-.241" transform="translate(-554.388 -145.111)" fill="#fff"/>
    <path id="Path_13" data-name="Path 13" d="M846.337,205.648h-2.573a.368.368,0,0,0-.394.341c0,.007,0,.014,0,.021l-2.888,23.647c-.047.233.047.347.28.347h2.573a.368.368,0,0,0,.383-.347l2.891-23.647c.053-.247-.041-.362-.271-.362" transform="translate(-593.057 -145.109)" fill="#fff"/>
    <path id="Path_14" data-name="Path 14" d="M879.318,204.709a8.285,8.285,0,0,0-3.912.933,7.692,7.692,0,0,0-2.87,2.588,8.538,8.538,0,0,0-1.354,3.827l-1.251,10.224q-.071.833-.071,1.178a6.018,6.018,0,0,0,1.722,4.5,6.382,6.382,0,0,0,4.675,1.684,7.965,7.965,0,0,0,5.531-2.034,8.3,8.3,0,0,0,2.676-5.337l1.254-10.224c.044-.556.068-.951.068-1.177a5.922,5.922,0,0,0-1.737-4.483,6.6,6.6,0,0,0-4.731-1.681m3.165,7.265L881.2,222.421a5,5,0,0,1-1.487,3.117,4.3,4.3,0,0,1-3.062,1.177,3.451,3.451,0,0,1-2.555-.957,3.5,3.5,0,0,1-.957-2.59,5.938,5.938,0,0,1,.035-.765l1.239-10.43a5.362,5.362,0,0,1,1.513-3.162,4.164,4.164,0,0,1,3.044-1.219,3.407,3.407,0,0,1,2.591,1.007,3.733,3.733,0,0,1,.957,2.679A5.12,5.12,0,0,1,882.483,211.974Z" transform="translate(-613.795 -144.447)" fill="#fff"/>
    <path id="Path_15" data-name="Path 15" d="M950.042,205.648h-2.505a.371.371,0,0,0-.383.347l-2.016,16.241c0,.068,0,.1-.05.1a.189.189,0,0,1-.124-.068l-6.182-16.379a.383.383,0,0,0-.383-.244h-2.54a.368.368,0,0,0-.383.347l-2.885,23.647c-.047.233.047.347.277.347h2.579a.368.368,0,0,0,.383-.347l1.949-16.308q.035-.106.088-.106c.032,0,.062.024.085.071l6.182,16.447c.024.165.15.244.383.244h2.573a.335.335,0,0,0,.244-.1.341.341,0,0,0,.1-.244l2.917-23.632a.262.262,0,0,0-.05-.241.324.324,0,0,0-.262-.121" transform="translate(-658.052 -145.11)" fill="#fff"/>
    <path id="Path_16" data-name="Path 16" d="M428.32,92.221l4.569-37.056a.589.589,0,0,1,.589-.545h2.67c.327,0,.492.183.492.545l-4.2,34.006a.209.209,0,0,0,.056.162.148.148,0,0,0,.109.056h15.437c.362,0,.506.183.436.545l-.274,2.287a.589.589,0,0,1-.589.548H428.8c-.327,0-.483-.183-.483-.548" transform="translate(-302.233 -38.541)" fill="#fff"/>
    <path id="Path_17" data-name="Path 17" d="M507.52,92.221,512.1,55.165a.589.589,0,0,1,.589-.545h2.67c.327,0,.492.183.492.545l-4.56,37.056a.589.589,0,0,1-.589.548h-2.67c-.344,0-.509-.183-.509-.548" transform="translate(-358.119 -38.541)" fill="#fff"/>
    <path id="Path_18" data-name="Path 18" d="M571.591,55.192l-.333,2.29a.559.559,0,0,1-.542.545h-8.663a.194.194,0,0,0-.215.23l-4.2,33.991a.524.524,0,0,1-.165.383.589.589,0,0,1-.436.165h-2.67c-.365,0-.509-.183-.436-.548l4.142-33.991c0-.144-.056-.218-.165-.218h-8.337a.441.441,0,0,1-.356-.165.406.406,0,0,1-.08-.38l.271-2.29a.589.589,0,0,1,.589-.545h21.089c.339-.012.5.171.5.533" transform="translate(-387.474 -38.568)" fill="#fff"/>
    <path id="Path_19" data-name="Path 19" d="M648.363,58H632.5a.194.194,0,0,0-.23.151.2.2,0,0,0,0,.079l-1.69,13.515a.194.194,0,0,0,.167.218.206.206,0,0,0,.05,0h10.683c.362,0,.506.183.436.545l-.274,2.29a.589.589,0,0,1-.589.545h-10.68a.194.194,0,0,0-.218.168.2.2,0,0,0,0,.05l-1.69,13.624a.209.209,0,0,0,.056.162.147.147,0,0,0,.109.056h15.858a.5.5,0,0,1,.406.162.406.406,0,0,1,.082.383l-.271,2.287a.589.589,0,0,1-.589.548h-19.3c-.327,0-.492-.183-.492-.548l4.578-37.068a.589.589,0,0,1,.589-.545h19.29c.362,0,.509.183.436.545l-.271,2.29a.589.589,0,0,1-.589.545" transform="translate(-440.543 -38.541)" fill="#fff"/>
    <path id="Path_20" data-name="Path 20" d="M712.6,89.734a8.676,8.676,0,0,1-2.561-6.62c0-.327.035-.883.109-1.69l2.181-17.6A11.531,11.531,0,0,1,724.3,53.14a9.733,9.733,0,0,1,6.977,2.426,8.611,8.611,0,0,1,2.561,6.565c0,.33-.038.857-.109,1.581l-.056.492a.811.811,0,0,1-.218.383.518.518,0,0,1-.38.162l-2.726.109a.433.433,0,0,1-.489-.492l.106-.762a8.362,8.362,0,0,0,.056-1.142,5.746,5.746,0,0,0-1.663-4.333,6.2,6.2,0,0,0-4.5-1.607,7.6,7.6,0,0,0-5.3,1.934,7.775,7.775,0,0,0-2.479,5.149l-2.234,18.1a7.911,7.911,0,0,0-.053,1.089,5.9,5.9,0,0,0,1.634,4.36A6.022,6.022,0,0,0,719.9,88.78a7.606,7.606,0,0,0,5.3-1.961,7.975,7.975,0,0,0,2.532-5.122l.109-.765a.562.562,0,0,1,.589-.489l2.67.162c.327,0,.492.147.492.436l-.109.492A11.539,11.539,0,0,1,719.51,92.159a9.642,9.642,0,0,1-6.909-2.426" transform="translate(-501.022 -37.497)" fill="#fff"/>
    <path id="Path_21" data-name="Path 21" d="M799.818,89.625a9.047,9.047,0,0,1-2.588-6.771q0-.544.109-1.743L799.4,64.273a12.466,12.466,0,0,1,3.951-8.066,11.777,11.777,0,0,1,8.213-3.067,9.611,9.611,0,0,1,7.03,2.561,9.1,9.1,0,0,1,2.614,6.812c0,.365-.035.945-.109,1.746L819.037,81.1a12.324,12.324,0,0,1-3.977,8.01,11.893,11.893,0,0,1-8.243,3.053,9.584,9.584,0,0,1-7-2.535m12.808-2.917a8.724,8.724,0,0,0,2.649-5.449L817.4,64.15a10.551,10.551,0,0,0,.053-1.2,6.446,6.446,0,0,0-1.69-4.686,6.088,6.088,0,0,0-4.583-1.743,7.586,7.586,0,0,0-5.422,2.1,8.676,8.676,0,0,0-2.588,5.534l-2.125,17.109a9.758,9.758,0,0,0-.053,1.2,6.283,6.283,0,0,0,1.687,4.6A6.056,6.056,0,0,0,807.2,88.78a7.618,7.618,0,0,0,5.422-2.072" transform="translate(-562.545 -37.497)" fill="#fff"/>
    <path id="Path_22" data-name="Path 22" d="M886.09,92.221l4.578-37.056a.589.589,0,0,1,.589-.545h2.67c.327,0,.489.183.489.545l-4.566,37.056a.589.589,0,0,1-.589.548h-2.673c-.336,0-.5-.183-.5-.548" transform="translate(-625.247 -38.541)" fill="#fff"/>
    <path id="Path_23" data-name="Path 23" d="M921.26,92.221l4.578-37.056a.589.589,0,0,1,.589-.545h2.67c.362,0,.562.13.589.383l10.683,28.719a.293.293,0,0,0,.188.109c.056,0,.082-.056.082-.165l3.488-28.5a.8.8,0,0,1,.218-.38.525.525,0,0,1,.383-.165h2.75c.365,0,.509.183.439.545l-4.53,37.056a.589.589,0,0,1-.589.548h-2.779c-.327,0-.509-.127-.545-.383L928.781,63.557c-.074-.074-.138-.1-.191-.082s-.082.082-.082.191l-3.488,28.554a.589.589,0,0,1-.589.548h-2.682c-.327,0-.489-.183-.489-.548" transform="translate(-650.064 -38.541)" fill="#fff"/>
    <path id="Path_24" data-name="Path 24" d="M24.189,0A24.189,24.189,0,0,0,0,24.189v80.868H80.865a24.189,24.189,0,0,0,24.189-24.189V0ZM78.533,74.624l-2.511,8.764A2,2,0,0,1,74.1,84.839l-44.639-.015L37,59.328l-8.354,2.585,1.787-6.061,8.357-2.588,10.6-35.817A2,2,0,0,1,51.315,16h11.3a1.5,1.5,0,0,1,1.442,1.916l-8.92,30.274,8.354-2.6L61.71,51.654l-8.363,2.6L47.91,72.7H77.088a1.5,1.5,0,0,1,1.445,1.919" fill="#fff"/>
  </g>
</svg>
